<?xml version="1.0" encoding="UTF-8" standalone="no"?>
<!-- Created with Inkscape (http://www.inkscape.org/) -->

<svg
   width="285.75mm"
   height="285.75mm"
   viewBox="0 0 285.75 285.75"
   version="1.1"
   id="svg1"
   xml:space="preserve"
   inkscape:export-filename="../../bitmap-logo-traced-color-bottom-tp.png"
   inkscape:export-xdpi="106.66666"
   inkscape:export-ydpi="106.66666"
   sodipodi:docname="vector-traced-iso.svg"
   inkscape:version="1.4 (e7c3feb100, 2024-10-09)"
   xmlns:inkscape="http://www.inkscape.org/namespaces/inkscape"
   xmlns:sodipodi="http://sodipodi.sourceforge.net/DTD/sodipodi-0.dtd"
   xmlns="http://www.w3.org/2000/svg"
   xmlns:svg="http://www.w3.org/2000/svg"><sodipodi:namedview
     id="namedview1"
     pagecolor="#ffffff"
     bordercolor="#111111"
     borderopacity="1"
     inkscape:showpageshadow="0"
     inkscape:pageopacity="0"
     inkscape:pagecheckerboard="1"
     inkscape:deskcolor="#d1d1d1"
     inkscape:document-units="mm"
     inkscape:zoom="0.52988902"
     inkscape:cx="406.68893"
     inkscape:cy="617.11035"
     inkscape:window-width="1536"
     inkscape:window-height="836"
     inkscape:window-x="0"
     inkscape:window-y="0"
     inkscape:window-maximized="1"
     inkscape:current-layer="layer1"
     inkscape:export-bgcolor="#ffffff00" /><defs
     id="defs1"><inkscape:path-effect
       effect="perspective-envelope"
       up_left_point="140.67089,342.87726"
       up_right_point="211.75103,306.46001"
       down_left_point="139.00292,425.07719"
       down_right_point="211.75103,382.26607"
       id="path-effect1"
       is_visible="true"
       lpeversion="1"
       deform_type="perspective"
       horizontal_mirror="false"
       vertical_mirror="false"
       overflow_perspective="false" /></defs><g
     inkscape:label="Layer 1"
     inkscape:groupmode="layer"
     id="layer1"
     transform="translate(-25.4,58.472916)"><ellipse
       style="opacity:1;fill:#df1212;stroke:#ffffff;stroke-width:0;fill-opacity:1"
       id="path3"
       ry="22.160769"
       rx="53.117306"
       cy="-12.701504"
       cx="168.07423" /><path
       id="path9"
       style="opacity:1;fill:#df1212;stroke:#ffffff;stroke-width:0;fill-opacity:1"
       d="m 114.27158,-6.927108 0.31893,31.373282 c 0.0375,3.689631 18.22306,21.909524 58.60188,19.654069 33.97123,-1.897544 47.68151,-17.310572 47.94843,-18.463309 l 0.41047,-32.518113 c 0,0 -3.7871,9.2579162 -19.1518,13.7712532 -4.29731,1.262323 -17.2642,4.5447158 -29.42508,4.9857418 -10.52978,0.381872 -20.19725,-1.247233 -23.08334,-1.419035 C 123.35699,8.8772672 114.27154,-6.927091 114.27154,-6.927091 Z"
       sodipodi:nodetypes="cssccssscc" /><path
       style="opacity:1;fill:#000000;stroke:#ffffff;stroke-width:0"
       d="m 68.314544,23.575649 c 5.718817,2.88232 24.366013,13.830645 24.366013,13.830645 l 22.301393,11.204755 c 23.67557,11.895177 42.89205,20.463468 48.79513,29.713405 4.48379,7.025953 1.98917,34.375346 1.60871,52.983916 -0.74902,36.63573 -0.3027,53.46429 -1.68582,66.46919 -0.20843,1.95982 0.2191,2.97359 -1.20706,4.7801 -3.5493,4.49587 -48.90333,-29.37814 -48.90333,-29.37814 0,0 -37.973983,-23.01 -48.237503,-36.11757 -2.27104,-2.90035 -0.72766,-54.819455 -0.72766,-54.819455 0.0324,-28.271244 -1.319883,-61.191923 3.690127,-58.666846 z"
       id="path12"
       sodipodi:nodetypes="scssssscsss" /><circle
       id="path13"
       style="fill:#000000;stroke:#ffffff;stroke-width:0.264583"
       cx="114.26712"
       cy="16.736729"
       r="0" /><circle
       id="path14"
       style="fill:#000000;stroke:#ffffff;stroke-width:0.264583"
       cx="114.45421"
       cy="5.5114083"
       r="0" /><path
       style="opacity:1;fill:#000000;stroke:#ffffff;stroke-width:0"
       d="m 114.56458,0.66924721 0.24189,10.09015979 c 0,0 -3.74172,6.536655 -4.07835,9.356715 -0.34753,2.911382 0.29227,6.116242 1.85209,8.598958 3.20972,5.10881 8.8032,8.597612 14.2875,11.1125 10.75396,4.931346 20.73441,6.432682 32.54374,7.14375 11.21505,0.675285 18.0156,0.367465 29.73353,-1.874781 6.9347,-1.326965 16.58466,-4.100168 23.44222,-7.517928 4.95716,-2.470618 12.30325,-6.637182 12.18573,-16.11299 -0.0447,-3.604082 -4.36172,-10.267848 -4.36172,-10.267848 l 0.78045,-11.45457779 c 0,0 49.5992,15.65479379 46.66297,19.83045379 -4.62761,6.581003 -41.27045,23.855613 -41.27045,23.855613 0,0 -49.12431,30.821033 -58.59257,27.706037 -12.4846,-4.107353 -43.37286,-21.121271 -43.37286,-21.121271 0,0 -39.372266,-19.079156 -55.423563,-29.601234 C 65.452021,17.959053 114.56458,0.66924721 114.56458,0.66924721 Z"
       id="path15"
       sodipodi:nodetypes="ccsssssssccscscsc" /><path
       style="opacity:1;fill:#000000;stroke:#ffffff;stroke-width:0"
       d="m 188.16714,89.867308 -0.28063,16.484892 -0.56127,22.91836 -0.56126,24.88279 -0.74836,38.44672 -13.65747,8.79317 c 0,0 -2.67216,2.35521 -3.92887,1.68379 -2.09831,-1.12105 -1.30962,-7.01582 -1.30962,-7.01582 0,0 1.99319,-67.16464 2.74284,-100.803419 0.28355,-12.723771 2.10371,-17.874187 5.03853,-19.523936 19.7488,-11.101378 87.16876,-47.547942 87.16876,-47.547942 0,0 7.58707,-4.688214 9.07117,-4.775438 2.64046,-0.155185 1.59026,14.280184 1.59026,14.280184 l -2.24507,93.918511 c 0,0 0.28131,4.77114 -0.8419,6.73519 -2.57658,4.50542 -12.33696,9.49936 -12.33696,9.49936 l 2.32772,-80.218875 -0.74022,-15.824869 -61.78021,32.609892 z"
       id="path16"
       sodipodi:nodetypes="ccccccscsscsccsccccc" /><path
       style="fill:#000000;stroke:#ffffff;stroke-width:0"
       d="m 184.00441,172.81269 79.07019,-46.88223 -5.49756,21.76833 -71.89782,45.1007 z"
       id="path2"
       sodipodi:nodetypes="ccccc" /><g
       id="g64"
       transform="matrix(0.88951986,0,0,0.89203013,67.779928,-214.55957)"
       inkscape:path-effect="#path-effect1"
       style="fill:#df1212;fill-opacity:1"><path
         style="fill:#df1212;stroke:#ffffff;stroke-width:0;fill-opacity:1"
         id="path62-60"
         sodipodi:type="arc"
         sodipodi:ry="1.6711093"
         sodipodi:rx="1.7233315"
         sodipodi:cy="364.24484"
         sodipodi:cx="149.75464"
         d="m 148.73981,355.68837 c -0.049,2.7332 -1.93717,5.93719 -4.22622,7.15721 -2.29895,1.2253 -4.12457,-0.0165 -4.0687,-2.77461 0.0558,-2.75376 1.96628,-5.95989 4.25832,-7.16029 2.2822,-1.19525 4.08551,0.0487 4.0366,2.77769 z" /><path
         style="fill:#df1212;stroke:#ffffff;stroke-width:0;fill-opacity:1"
         id="path62-6-6"
         sodipodi:type="arc"
         sodipodi:ry="1.6711093"
         sodipodi:rx="1.7233315"
         sodipodi:cy="364.27441"
         sodipodi:cx="153.74554"
         d="m 158.1835,350.78472 c -0.0413,2.70508 -1.89033,5.86886 -4.1386,7.06733 -2.25791,1.20361 -4.05652,-0.0327 -4.0086,-2.76211 0.0478,-2.72522 1.91864,-5.89101 4.16988,-7.07022 2.24166,-1.1742 4.01853,0.0641 3.97732,2.765 z" /><path
         style="fill:#df1212;stroke:#ffffff;stroke-width:0;fill-opacity:1"
         id="path62-60-8"
         sodipodi:type="arc"
         sodipodi:ry="1.6711093"
         sodipodi:rx="1.7233315"
         sodipodi:cy="364.15027"
         sodipodi:cx="157.769"
         d="m 167.54122,345.48241 c -0.0337,2.67663 -1.84421,5.79934 -4.05217,6.97556 -2.21734,1.18121 -3.98916,-0.0498 -3.94899,-2.75026 0.0401,-2.69634 1.87176,-5.82093 4.08266,-6.97826 2.20157,-1.15245 3.95221,0.0804 3.9185,2.75296 z" /><path
         style="fill:#df1212;stroke:#ffffff;stroke-width:0;fill-opacity:1"
         id="path62-6-6-7"
         sodipodi:type="arc"
         sodipodi:ry="1.6711093"
         sodipodi:rx="1.7233315"
         sodipodi:cy="364.17984"
         sodipodi:cx="161.7599"
         d="m 176.65363,340.75465 c -0.0266,2.64964 -1.80005,5.73397 -3.96937,6.88978 -2.17845,1.16069 -3.92459,-0.0647 -3.89182,-2.73775 0.0327,-2.66896 1.82684,-5.75504 3.99908,-6.89231 2.16315,-1.13252 3.88863,0.0947 3.86211,2.74028 z" /><path
         style="fill:#df1212;stroke:#ffffff;stroke-width:0;fill-opacity:1"
         id="path62-60-2"
         sodipodi:type="arc"
         sodipodi:ry="1.6711093"
         sodipodi:rx="1.7233315"
         sodipodi:cy="364.17181"
         sodipodi:cx="165.7484"
         d="m 185.60355,336.00488 c -0.0196,2.62304 -1.75709,5.66952 -3.88873,6.80521 -2.14054,1.14044 -3.86157,-0.0795 -3.83597,-2.72544 0.0256,-2.64197 1.78318,-5.6901 3.91771,-6.80758 2.12569,-1.11285 3.82658,0.10871 3.80699,2.72781 z" /><path
         style="fill:#df1212;stroke:#ffffff;stroke-width:0;fill-opacity:1"
         id="path62-6-6-3"
         sodipodi:type="arc"
         sodipodi:ry="1.6711093"
         sodipodi:rx="1.7233315"
         sodipodi:cy="364.20139"
         sodipodi:cx="169.7393"
         d="m 194.40401,331.43989 c -0.0129,2.59709 -1.71537,5.60687 -3.81035,6.72321 -2.10365,1.12095 -3.80022,-0.0934 -3.78153,-2.71297 0.0187,-2.61565 1.74077,-5.62699 3.83862,-6.72543 2.08922,-1.09393 3.76615,0.12196 3.75326,2.71519 z" /><path
         style="fill:#df1212;stroke:#ffffff;stroke-width:0;fill-opacity:1"
         id="path62-60-8-7"
         sodipodi:type="arc"
         sodipodi:ry="1.6711093"
         sodipodi:rx="1.7233315"
         sodipodi:cy="364.07724"
         sodipodi:cx="173.76276"
         d="m 203.12557,326.48779 c -0.006,2.5708 -1.67428,5.54308 -3.73299,6.63937 -2.06716,1.1008 -3.73945,-0.10826 -3.7275,-2.7011 0.0119,-2.589 1.699,-5.56271 3.76055,-6.64144 2.05315,-1.07434 3.70629,0.13615 3.69994,2.70317 z" /><path
         style="fill:#df1212;stroke:#ffffff;stroke-width:0;fill-opacity:1"
         id="path62-6-6-7-5"
         sodipodi:type="arc"
         sodipodi:ry="1.6711093"
         sodipodi:rx="1.7233315"
         sodipodi:cy="364.10681"
         sodipodi:cx="177.75366"
         d="m 211.62779,322.08111 c -9e-5,2.54586 -1.63486,5.48306 -3.65877,6.56098 -2.03214,1.08232 -3.68113,-0.12119 -3.67563,-2.68867 0.005,-2.5637 1.65894,-5.50224 3.68566,-6.56291 2.01853,-1.05639 3.64883,0.14845 3.64874,2.6906 z" /><path
         style="fill:#df1212;stroke:#ffffff;stroke-width:0;fill-opacity:1"
         id="path62-60-89"
         sodipodi:type="arc"
         sodipodi:ry="1.6711093"
         sodipodi:rx="1.7233315"
         sodipodi:cy="368.11157"
         sodipodi:cx="149.70343"
         d="m 148.41134,367.23411 c -0.0494,2.75147 -1.94478,5.99392 -4.24233,7.24321 -2.30753,1.25472 -4.13978,0.0218 -4.08344,-2.75489 0.0563,-2.77228 1.9741,-6.01709 4.27467,-7.24661 2.29066,-1.22421 4.10043,0.0111 4.0511,2.75829 z" /><path
         style="fill:#df1212;stroke:#ffffff;stroke-width:0;fill-opacity:1"
         id="path62-6-6-73"
         sodipodi:type="arc"
         sodipodi:ry="1.6711093"
         sodipodi:rx="1.7233315"
         sodipodi:cy="368.14114"
         sodipodi:cx="153.69434"
         d="m 157.88961,362.21095 c -0.0416,2.723 -1.8976,5.92447 -4.15409,7.15162 -2.2662,1.23243 -4.07125,0.005 -4.02291,-2.74282 0.0483,-2.74339 1.92612,-5.94709 4.1856,-7.15483 2.24983,-1.20257 4.03298,0.0272 3.9914,2.74603 z" /><path
         style="fill:#df1212;stroke:#ffffff;stroke-width:0;fill-opacity:1"
         id="path62-60-8-6"
         sodipodi:type="arc"
         sodipodi:ry="1.6711093"
         sodipodi:rx="1.7233315"
         sodipodi:cy="368.017"
         sodipodi:cx="157.71779"
         d="m 167.28108,356.78767 c -0.0341,2.69418 -1.85117,5.85382 -4.06707,7.05813 -2.22534,1.20944 -4.00341,-0.0131 -3.96288,-2.7314 0.0405,-2.71416 1.8789,-5.87589 4.09776,-7.06115 2.20946,-1.18024 3.9662,0.0444 3.93219,2.73442 z" /><path
         style="fill:#df1212;stroke:#ffffff;stroke-width:0;fill-opacity:1"
         id="path62-6-6-7-1"
         sodipodi:type="arc"
         sodipodi:ry="1.6711093"
         sodipodi:rx="1.7233315"
         sodipodi:cy="368.04657"
         sodipodi:cx="161.70869"
         d="m 176.42576,351.94521 c -0.0268,2.66686 -1.80669,5.7874 -3.98368,6.97074 -2.1862,1.18835 -3.9384,-0.0288 -3.90533,-2.7193 0.033,-2.68643 1.83367,-5.80894 4.0136,-6.97358 2.17078,-1.15976 3.90219,0.0593 3.87541,2.72214 z" /><path
         style="fill:#df1212;stroke:#ffffff;stroke-width:0;fill-opacity:1"
         id="path62-60-2-2"
         sodipodi:type="arc"
         sodipodi:ry="1.6711093"
         sodipodi:rx="1.7233315"
         sodipodi:cy="368.03854"
         sodipodi:cx="165.69719"
         d="m 185.40687,347.08238 c -0.0198,2.63994 -1.76344,5.72193 -3.9025,6.8846 -2.14801,1.16755 -3.87494,-0.0442 -3.84908,-2.70739 0.0258,-2.65912 1.7897,-5.74296 3.93167,-6.88728 2.13306,-1.13955 3.83971,0.0741 3.81991,2.71007 z" /><path
         style="fill:#df1212;stroke:#ffffff;stroke-width:0;fill-opacity:1"
         id="path62-6-6-3-9"
         sodipodi:type="arc"
         sodipodi:ry="1.6711093"
         sodipodi:rx="1.7233315"
         sodipodi:cy="368.06812"
         sodipodi:cx="169.6881"
         d="m 194.2375,342.40715 c -0.0131,2.61368 -1.72144,5.6583 -3.82359,6.80109 -2.11088,1.14753 -3.81319,-0.0589 -3.79429,-2.69531 0.0189,-2.63248 1.74701,-5.67884 3.85204,-6.8036 2.09636,-1.12011 3.77889,0.088 3.76584,2.69782 z" /><path
         style="fill:#df1212;stroke:#ffffff;stroke-width:0;fill-opacity:1"
         id="path62-60-8-7-3"
         sodipodi:type="arc"
         sodipodi:ry="1.6711093"
         sodipodi:rx="1.7233315"
         sodipodi:cy="367.94397"
         sodipodi:cx="173.71155"
         d="m 202.98848,337.34336 c -0.006,2.58708 -1.68008,5.59351 -3.74572,6.71574 -2.07414,1.12684 -3.752,-0.0745 -3.7399,-2.68383 0.0121,-2.60551 1.70497,-5.61356 3.77346,-6.71808 2.06004,-1.10001 3.71863,0.10291 3.71216,2.68617 z" /><path
         style="fill:#df1212;stroke:#ffffff;stroke-width:0;fill-opacity:1"
         id="path62-6-6-7-5-1"
         sodipodi:type="arc"
         sodipodi:ry="1.6711093"
         sodipodi:rx="1.7233315"
         sodipodi:cy="367.97354"
         sodipodi:cx="177.70245"
         d="m 211.51889,332.83072 c -1.7e-4,2.56184 -1.64039,5.53255 -3.671,6.63591 -2.0389,1.10786 -3.69331,-0.088 -3.6877,-2.67176 0.006,-2.5799 1.66464,-5.55214 3.69808,-6.63811 2.0252,-1.08156 3.66079,0.11587 3.66062,2.67396 z" /><path
         style="fill:#df1212;stroke:#ffffff;stroke-width:0;fill-opacity:1"
         id="path62-60-84"
         sodipodi:type="arc"
         sodipodi:ry="1.6711093"
         sodipodi:rx="1.7233315"
         sodipodi:cy="372.10196"
         sodipodi:cx="149.81299"
         d="m 148.46063,379.01633 c -0.0495,2.76931 -1.95074,6.05019 -4.25543,7.32913 -2.31473,1.28452 -4.15274,0.0611 -4.09623,-2.73371 0.0564,-2.79039 1.98023,-6.07387 4.28796,-7.33287 2.29775,-1.25357 4.11314,-0.0275 4.0637,2.73745 z" /><path
         style="fill:#df1212;stroke:#ffffff;stroke-width:0;fill-opacity:1"
         id="path62-6-6-5"
         sodipodi:type="arc"
         sodipodi:ry="1.6711093"
         sodipodi:rx="1.7233315"
         sodipodi:cy="372.13153"
         sodipodi:cx="153.80389"
         d="m 157.96787,373.87207 c -0.0417,2.74049 -1.90327,5.97963 -4.16664,7.23583 -2.27314,1.26163 -4.08377,0.0434 -4.03533,-2.7221 0.0484,-2.76114 1.93196,-6.00274 4.19835,-7.23938 2.25667,-1.23134 4.04527,-0.0106 4.00362,2.72565 z" /><path
         style="fill:#df1212;stroke:#ffffff;stroke-width:0;fill-opacity:1"
         id="path62-60-8-0"
         sodipodi:type="arc"
         sodipodi:ry="1.6711093"
         sodipodi:rx="1.7233315"
         sodipodi:cy="372.00739"
         sodipodi:cx="157.82735"
         d="m 167.38751,368.32628 c -0.0341,2.71134 -1.85655,5.90789 -4.07908,7.14065 -2.23204,1.23804 -4.01552,0.0246 -3.97493,-2.71115 0.0405,-2.73156 1.88445,-5.93042 4.10996,-7.14398 2.21606,-1.20842 3.97809,0.007 3.94405,2.71448 z" /><path
         style="fill:#df1212;stroke:#ffffff;stroke-width:0;fill-opacity:1"
         id="path62-6-6-7-3"
         sodipodi:type="arc"
         sodipodi:ry="1.6711093"
         sodipodi:rx="1.7233315"
         sodipodi:cy="372.03696"
         sodipodi:cx="161.81825"
         d="m 176.55913,363.36756 c -0.0268,2.68371 -1.8118,5.84043 -3.99519,7.05167 -2.19265,1.21637 -3.95011,0.008 -3.91703,-2.69949 0.033,-2.7035 1.83895,-5.86242 4.0253,-7.05481 2.17714,-1.18737 3.91369,0.023 3.88692,2.70263 z" /><path
         style="fill:#df1212;stroke:#ffffff;stroke-width:0;fill-opacity:1"
         id="path62-60-2-6"
         sodipodi:type="arc"
         sodipodi:ry="1.6711093"
         sodipodi:rx="1.7233315"
         sodipodi:cy="372.02893"
         sodipodi:cx="165.80675"
         d="m 185.56622,358.39015 c -0.0198,2.65646 -1.76829,5.77394 -3.91353,6.96396 -2.15424,1.19502 -3.88628,-0.008 -3.86044,-2.68799 0.0258,-2.67587 1.79472,-5.79541 3.94287,-6.96693 2.1392,-1.16662 3.85084,0.0385 3.8311,2.69096 z" /><path
         style="fill:#df1212;stroke:#ffffff;stroke-width:0;fill-opacity:1"
         id="path62-6-6-3-1"
         sodipodi:type="arc"
         sodipodi:ry="1.6711093"
         sodipodi:rx="1.7233315"
         sodipodi:cy="372.0585"
         sodipodi:cx="169.79765"
         d="m 194.42192,353.60318 c -0.013,2.62989 -1.72605,5.70933 -3.83415,6.87892 -2.11689,1.17447 -3.82416,-0.0234 -3.80533,-2.67631 0.0188,-2.64892 1.75178,-5.7303 3.86278,-6.88172 2.10228,-1.14667 3.78966,0.0531 3.7767,2.67911 z" /><path
         style="fill:#df1212;stroke:#ffffff;stroke-width:0;fill-opacity:1"
         id="path62-60-8-7-0"
         sodipodi:type="arc"
         sodipodi:ry="1.6711093"
         sodipodi:rx="1.7233315"
         sodipodi:cy="371.93436"
         sodipodi:cx="173.82111"
         d="m 203.19727,348.42625 c -0.006,2.603 -1.68445,5.64357 -3.75583,6.79207 -2.07993,1.15324 -3.76262,-0.0397 -3.75061,-2.66525 0.012,-2.62163 1.70948,-5.66402 3.78374,-6.79468 2.06575,-1.12603 3.72904,0.0687 3.7227,2.66786 z" /><path
         style="fill:#df1212;stroke:#ffffff;stroke-width:0;fill-opacity:1"
         id="path62-6-6-7-5-6"
         sodipodi:type="arc"
         sodipodi:ry="1.6711093"
         sodipodi:rx="1.7233315"
         sodipodi:cy="371.96393"
         sodipodi:cx="177.81201"
         d="m 211.75103,343.80617 c 0,2.57747 -1.64455,5.58168 -3.6807,6.71082 -2.04448,1.13375 -3.70357,-0.054 -3.69811,-2.65356 0.005,-2.59574 1.66894,-5.60166 3.70793,-6.71327 2.03071,-1.1071 3.67088,0.0823 3.67088,2.65601 z" /><path
         style="fill:#df1212;stroke:#ffffff;stroke-width:0;fill-opacity:1"
         id="path62-6-6-73-2"
         sodipodi:type="arc"
         sodipodi:ry="1.6711093"
         sodipodi:rx="1.7233315"
         sodipodi:cy="375.99826"
         sodipodi:cx="153.75269"
         d="m 157.67136,385.45031 c -0.0421,2.75875 -1.91065,6.03644 -4.18236,7.32204 -2.28154,1.29117 -4.09869,0.0819 -4.04982,-2.70216 0.0488,-2.77967 1.93954,-6.06006 4.21427,-7.32592 2.26496,-1.26043 4.05992,-0.0484 4.01791,2.70604 z" /><path
         style="fill:#df1212;stroke:#ffffff;stroke-width:0;fill-opacity:1"
         id="path62-60-8-6-0"
         sodipodi:type="arc"
         sodipodi:ry="1.6711093"
         sodipodi:rx="1.7233315"
         sodipodi:cy="375.87411"
         sodipodi:cx="157.77614"
         d="m 167.12518,379.78056 c -0.0344,2.72925 -1.8636,5.96356 -4.09418,7.22511 -2.24014,1.26695 -4.02996,0.0623 -3.989,-2.69167 0.0409,-2.74973 1.89169,-5.98658 4.12526,-7.22876 2.22407,-1.23689 3.99227,-0.0297 3.95792,2.69532 z" /><path
         style="fill:#df1212;stroke:#ffffff;stroke-width:0;fill-opacity:1"
         id="path62-6-6-7-1-6"
         sodipodi:type="arc"
         sodipodi:ry="1.6711093"
         sodipodi:rx="1.7233315"
         sodipodi:cy="375.90369"
         sodipodi:cx="161.76704"
         d="m 176.3295,374.70433 c -0.0271,2.70127 -1.81854,5.89502 -4.0097,7.13446 -2.20048,1.2447 -3.9641,0.0451 -3.93071,-2.68044 0.0333,-2.72132 1.84588,-5.91748 4.04001,-7.13791 2.18488,-1.21528 3.92743,-0.0133 3.9004,2.68389 z" /><path
         style="fill:#df1212;stroke:#ffffff;stroke-width:0;fill-opacity:1"
         id="path62-60-2-2-1"
         sodipodi:type="arc"
         sodipodi:ry="1.6711093"
         sodipodi:rx="1.7233315"
         sodipodi:cy="375.89566"
         sodipodi:cx="165.75554"
         d="m 185.36818,369.61112 c -0.02,2.67368 -1.77473,5.82747 -3.92747,7.04512 -2.16182,1.22279 -3.89983,0.0281 -3.87374,-2.66936 0.026,-2.69334 1.80133,-5.84939 3.95702,-7.04839 2.14666,-1.19398 3.86414,0.003 3.84419,2.67263 z" /><path
         style="fill:#df1212;stroke:#ffffff;stroke-width:0;fill-opacity:1"
         id="path62-6-6-3-9-5"
         sodipodi:type="arc"
         sodipodi:ry="1.6711093"
         sodipodi:rx="1.7233315"
         sodipodi:cy="375.92523"
         sodipodi:cx="169.74644"
         d="m 194.25443,364.71125 c -0.0131,2.6468 -1.7322,5.76184 -3.84757,6.95853 -2.1242,1.20169 -3.83728,0.012 -3.81824,-2.65808 0.019,-2.66606 1.7581,-5.78325 3.87638,-6.96162 2.1095,-1.17348 3.80255,0.0183 3.78943,2.66117 z" /><path
         style="fill:#df1212;stroke:#ffffff;stroke-width:0;fill-opacity:1"
         id="path62-60-8-7-3-5"
         sodipodi:type="arc"
         sodipodi:ry="1.6711093"
         sodipodi:rx="1.7233315"
         sodipodi:cy="375.80109"
         sodipodi:cx="173.7699"
         d="m 203.05956,359.41998 c -0.006,2.61959 -1.69031,5.69506 -3.76871,6.8701 -2.08701,1.17991 -3.77533,-0.005 -3.76317,-2.64741 0.0121,-2.63845 1.71552,-5.71594 3.79681,-6.873 2.07273,-1.15231 3.74153,0.0346 3.73507,2.65031 z" /><path
         style="opacity:1;fill:#df1212;stroke:#ffffff;stroke-width:0;fill-opacity:1"
         id="path62"
         sodipodi:type="arc"
         sodipodi:ry="1.6711093"
         sodipodi:rx="1.7233315"
         sodipodi:cy="360.10828"
         sodipodi:cx="153.77698"
         d="m 158.44248,338.58752 c -0.0409,2.68615 -1.88283,5.81003 -4.12254,6.97812 -2.24929,1.17308 -4.04118,-0.0724 -3.99365,-2.78261 0.0474,-2.70602 1.91093,-5.83167 4.15359,-6.98068 2.23316,-1.14414 4.00346,0.10312 3.9626,2.78517 z" /><path
         style="fill:#df1212;stroke:#ffffff;stroke-width:0;fill-opacity:1"
         id="path62-6"
         sodipodi:type="arc"
         sodipodi:ry="1.6711093"
         sodipodi:rx="1.7233315"
         sodipodi:cy="360.13785"
         sodipodi:cx="157.76788"
         d="m 167.68482,333.89443 c -0.0335,2.65896 -1.83766,5.74431 -4.03797,6.89202 -2.20962,1.15258 -3.97536,-0.0871 -3.93545,-2.76966 0.0398,-2.67842 1.86501,-5.76543 4.06825,-6.89442 2.19396,-1.12424 3.93866,0.11713 3.90517,2.77206 z" /><path
         style="fill:#df1212;stroke:#ffffff;stroke-width:0;fill-opacity:1"
         id="path62-2"
         sodipodi:type="arc"
         sodipodi:ry="1.6711093"
         sodipodi:rx="1.7233315"
         sodipodi:cy="360.11093"
         sodipodi:cx="169.6259"
         d="m 194.2138,320.10358 c -0.013,2.58078 -1.71071,5.55565 -3.79967,6.64513 -2.09758,1.09397 -3.78913,-0.12887 -3.77038,-2.73188 0.0187,-2.59911 1.73597,-5.57532 3.82778,-6.64706 2.08323,-1.06734 3.75526,0.15685 3.74227,2.73381 z" /><path
         style="fill:#df1212;stroke:#ffffff;stroke-width:0;fill-opacity:1"
         id="path62-6-7"
         sodipodi:type="arc"
         sodipodi:ry="1.6711093"
         sodipodi:rx="1.7233315"
         sodipodi:cy="360.1405"
         sodipodi:cx="173.61681"
         d="m 202.8399,315.72613 c -0.007,2.55563 -1.67039,5.49526 -3.72384,6.56639 -2.06184,1.07551 -3.72967,-0.14161 -3.71755,-2.71904 0.0121,-2.57361 1.69498,-5.51449 3.75125,-6.56818 2.04791,-1.04941 3.69668,0.16895 3.69014,2.72083 z" /><path
         style="fill:#df1212;stroke:#ffffff;stroke-width:0;fill-opacity:1"
         id="path62-60-8-3"
         sodipodi:type="arc"
         sodipodi:ry="1.6711093"
         sodipodi:rx="1.7233315"
         sodipodi:cy="380.02856"
         sodipodi:cx="157.70007"
         d="m 166.79219,392.20093 c -0.0348,2.74884 -1.87147,6.02444 -4.11096,7.31743 -2.24914,1.29855 -4.04595,0.10347 -4.00456,-2.67044 0.0413,-2.76959 1.89978,-6.04798 4.1423,-7.32143 2.23293,-1.268 4.00796,-0.0701 3.97322,2.67444 z" /><path
         style="fill:#df1212;stroke:#ffffff;stroke-width:0;fill-opacity:1"
         id="path62-6-6-7-7"
         sodipodi:type="arc"
         sodipodi:ry="1.6711093"
         sodipodi:rx="1.7233315"
         sodipodi:cy="380.05814"
         sodipodi:cx="161.69098"
         d="m 176.03277,386.99633 c -0.0274,2.72047 -1.82606,5.9547 -4.02584,7.22494 -2.20917,1.27567 -3.97958,0.0854 -3.94581,-2.65966 0.0337,-2.74081 1.8536,-5.97768 4.05638,-7.22875 2.19344,-1.24577 3.94263,-0.0528 3.91527,2.66347 z" /><path
         style="fill:#df1212;stroke:#ffffff;stroke-width:0;fill-opacity:1"
         id="path62-60-2-4"
         sodipodi:type="arc"
         sodipodi:ry="1.6711093"
         sodipodi:rx="1.7233315"
         sodipodi:cy="380.05011"
         sodipodi:cx="165.67947"
         d="m 185.10649,381.77661 c -0.0203,2.69253 -1.78192,5.886 -3.943,7.13384 -2.17021,1.25312 -3.91482,0.0676 -3.88841,-2.64905 0.0264,-2.71246 1.80872,-5.90843 3.97276,-7.13744 2.15495,-1.22386 3.87888,-0.0358 3.85865,2.65265 z" /><path
         style="fill:#df1212;stroke:#ffffff;stroke-width:0;fill-opacity:1"
         id="path62-6-6-3-5"
         sodipodi:type="arc"
         sodipodi:ry="1.6711093"
         sodipodi:rx="1.7233315"
         sodipodi:cy="380.07968"
         sodipodi:cx="169.67038"
         d="m 194.02661,376.75344 c -0.0134,2.6653 -1.73907,5.81925 -3.86249,7.04552 -2.13232,1.23142 -3.85181,0.0507 -3.83251,-2.6382 0.0193,-2.68483 1.76517,-5.84114 3.89152,-7.04894 2.1175,-1.20276 3.81682,-0.0197 3.80348,2.64162 z" /><path
         style="fill:#df1212;stroke:#ffffff;stroke-width:0;fill-opacity:1"
         id="path62-6-6-7-1-4"
         sodipodi:type="arc"
         sodipodi:ry="1.6711093"
         sodipodi:rx="1.7233315"
         sodipodi:cy="383.92487"
         sodipodi:cx="161.63977"
         d="m 175.79978,398.4909 c -0.0277,2.7384 -1.8329,6.01055 -4.04057,7.30973 -2.21713,1.30474 -3.99377,0.12333 -3.95969,-2.63995 0.034,-2.759 1.86064,-6.03401 4.07132,-7.31385 2.20129,-1.27441 3.95657,-0.0901 3.92894,2.64407 z" /><path
         style="fill:#df1212;stroke:#ffffff;stroke-width:0;fill-opacity:1"
         id="path62-60-2-2-3"
         sodipodi:type="arc"
         sodipodi:ry="1.6711093"
         sodipodi:rx="1.7233315"
         sodipodi:cy="383.91684"
         sodipodi:cx="165.62827"
         d="m 184.90556,393.15238 c -0.0205,2.71013 -1.78846,5.94076 -3.95715,7.21695 -2.1779,1.28161 -3.92858,0.10472 -3.9019,-2.62977 0.0266,-2.7303 1.81544,-5.96365 3.98712,-7.22086 2.16253,-1.25191 3.89237,-0.0723 3.87193,2.63368 z" /></g></g></svg>
